<?xml version="1.0" encoding="UTF-8"?>
<svg width="1500" height="1500" version="1.1" viewBox="0 0 396.87 396.88" xmlns="http://www.w3.org/2000/svg"><g transform="translate(0 99.875)"><g transform="matrix(.85746 0 0 .85746 -218.77 86.98)"><g fill="#fff" shape-rendering="auto"><path d="m566.5-194.47a4.8923 4.8923 0 0 0-3.6644 1.8185h-3e-3c-0.0369 0.046-0.0767 0.095-0.11369 0.1406-3.6506 4.5111-7.5624 9.2198-10.959 14.385-25.031-5.6314-51.376-7.5676-71.902-7.3711-32.662 0.3124-103.91 0.6066-139.39 58.479-1.7091 2.7185-1.4508 6.193 0.13695 8.5452 0.19081 0.2827 0.46653 0.5083 0.69916 0.7653-0.8463 1.8932-1.7926 3.7463-2.4924 5.7015-5.3174 13.521-7.4814 29.365-5.5387 49.886 0.0516 1.079 0.10803 2.17 0.17364 3.2779 0.48162 8.137 3.5457 16.707 8.4786 26.086-0.46331 0.1232-1.0638 0.4633-1.6097 0.7126-1.3892 0.3251-2.783 0.6415-4.1832 0.9437a4.8923 4.8923 0 0 0 0.1855 9.5994c4.0139 0.7046 8.217 0.947 12.521 0.9022 0.74567 1.0543 1.4878 2.1046 2.2588 3.2164 5.9004 9.4307 12.17 17.945 17.158 24.346 5.0164 6.4376 9.0427 11.123 9.3571 11.516a4.8923 4.8923 0 0 0 8.2853-5.0411c6.2931 5.4256 12.9 10.589 19.834 15.231 8.903 6.194 18.087 11.345 27.213 15.867-0.0378 0.054-0.0714 0.1081-0.10906 0.1622 0.28987 0.136 0.18965 0.096 0.50128 0.2409 1.7878 0.8313 3.9252 1.8037 6.3154 2.8504 0.76182 0.3336 1.686 0.7041 2.496 1.0506l0.46046 0.01a4.8923 4.8923 0 0 0 2.2303-9.2713l0.53951 2.7932a4.8923 4.8923 0 0 0-2.3539-3.3011l0.81288 0.01c-10.77-4.8273-21.891-11.043-32.547-18.459a4.8923 4.8923 0 0 0-0.0744-0.051c-16.73-11.192-32.055-24.888-42.213-39.697a4.8923 4.8923 0 0 0-0.0899-0.1173 4.8923 4.8923 0 0 0-3e-3 0 4.8923 4.8923 0 0 0-0.1328-0.2088c-1.7636-2.5934-3.3695-5.2207-4.8008-7.8713a4.8923 4.8923 0 0 0-0.14261-0.246c-0.092-0.1489-0.2041-0.3369-0.34158-0.5622a4.8923 4.8923 0 0 0-5.627-2.1172l6e-3 -0.01c0.11583-0.036 0.0973-0.037-0.22273 0.069a4.8923 4.8923 0 0 0-2.4552 1.8221c-0.4327-0.4845-0.83899-0.8587-1.217-1.0919a4.8923 4.8923 0 0 0-0.65577-2.758c-6.3583-10.889-9.6761-19.877-10.109-27.197-0.0645-1.0888-0.12086-2.1683-0.17208-3.2437a4.8923 4.8923 0 0 0-0.0156-0.2326c-1.8642-19.501 0.17788-33.591 4.9139-45.6a4.8923 4.8923 0 0 0 0.0569-0.1504c1.1115-3.115 2.4221-6.1205 3.9548-9.0485a4.8923 4.8923 0 0 0-1.6562-6.3557c32.89-50.65 97.423-51.354 129.66-51.662 20.733-0.1984 47.943 1.7903 72.857 7.7638a4.8923 4.8923 0 0 0 2.496-0.061 4.8923 4.8923 0 0 0 2.1683 1.2341c18.619 4.9037 35.558 12.193 47.085 22.131 4.6413 4.0015 8.165 9.3062 10.805 15.516a4.8923 4.8923 0 0 0 0.6641 1.1208c3.6695 4.6415 6.684 9.7785 8.9942 15.553 8.5914 21.474 6.6352 35.019 3.4918 46.305a4.8923 4.8923 0 0 0-0.084 0.3473c-1.511 7.5104-3.5231 13.762-4.8007 17.346a4.8923 4.8923 0 0 0 0.418 4.1662c1.3117 2.1774 2.34 5.985 2.3436 9.9844-0.01 6.1074-2.8083 11.139-4.0391 11.904a4.8923 4.8923 0 0 0-0.4237 0.295 4.8923 4.8923 0 0 0-0.3674-0.2051c-0.3069-0.153-0.9088-0.6073-1.5488-1.5389a4.8923 4.8923 0 0 0-7.6445-0.5292c-1.7053 1.8671-3.8946 4.1978-6.4022 6.7262a4.8923 4.8923 0 0 0-0.42786 0.4961c-1.9783 2.6175-4.0574 5.1783-6.2244 7.6796a4.8923 4.8923 0 0 0-0.0238 0.027c-2.2308 2.6133-4.6154 5.1764-7.121 7.6874a4.8923 4.8923 0 0 0-0.0175 0.018c-0.27831 0.2818-0.56393 0.5687-0.85524 0.8594a4.8923 4.8923 0 0 0-0.0103 0.01c-0.0108 0.011-0.0225 0.021-0.0331 0.032-18.266 18.214-40.984 32.505-62.252 41.268a4.8923 4.8923 0 0 0-2.9218 5.5077 4.8923 4.8923 0 0 0-0.44132 1.0077l-1.1503 3.7714a4.8923 4.8923 0 0 0-0.0351 0.1214c-0.0272 0.098 0.058-0.1583 0.0387-0.1018a4.8923 4.8923 0 0 0-0.2222 1.3519c1.556-0.5313 3.2132-1.0739 4.6256-1.5819 2.6183-0.9417 4.961-1.8255 6.9205-2.5853 2.1763-0.8439 2.4169-0.9646 3.5021-1.4123-0.0265-0.028-0.0547-0.06-0.0811-0.088 20.478-9.3335 41.486-22.926 58.961-40.361a4.8923 4.8923 0 0 0 0.01-0.012c3e-3 0 5e-3 -0.01 8e-3 -0.01a4.8923 4.8923 0 0 0 0.01-0.012 4.8923 4.8923 0 0 0 8e-3 -0.01c0.28347-0.2829 0.57187-0.5705 0.86299-0.8651l0.0175-0.018c2.6511-2.6576 5.1944-5.3914 7.5959-8.2031l0.014-0.016c2.2137-2.5558 4.3361-5.1849 6.3769-7.8708 0.9908-1.0019 1.6634-1.7512 2.545-2.6738l3.0608 9.324a4.8923 4.8923 0 0 0 9.4491-0.6289 4.8923 4.8923 0 0 0 0.1-0.5271l1.3224-10.488c4.6667-4.2704 6.5945-11.028 6.5996-18.356a4.8923 4.8923 0 0 0 0-0.01c0-4.6278-0.8969-9.0421-2.6821-12.869 1.3423-3.94 3.0416-9.4575 4.4535-16.379 3.4421-12.376 5.4957-29.191-3.84-52.526-2.5602-6.3991-5.9473-12.151-9.9726-17.354-3.0668-7.0561-7.2999-13.537-13.186-18.611-12.105-10.436-28.364-17.554-45.885-22.639 1.6223-3.9484 3.8673-8.1899 6.0115-12.83h-4e-3a4.8923 4.8923 0 0 0-4.0798-6.9334h-4e-3a4.8923 4.8923 0 0 0-0.48834-0.01zm25.379 193.08c-0.0334 0.024-0.24442 0.207-0.43149 0.3715 0.0489-0.049 0.0969-0.1051 0.12505-0.1292 0.28445-0.2432 0.3548-0.2773 0.30644-0.2423zm-1.4004 1.5823c-2e-5 1e-4 -3e-3 0.01-3e-3 0.01a4.8923 4.8923 0 0 0-0.0212 0.037c2.7e-4 -8e-4 8e-3 -0.022 8e-3 -0.022-2e-5 0 0.0146-0.022 0.0156-0.023zm7.7649 5.7743-0.0325 0.057c-0.0908 0.091-0.0792 0.065-0.14624 0.1251 0.0712-0.071 0.10033-0.1 0.17878-0.1825z" color="#000000" color-rendering="auto" dominant-baseline="auto" image-rendering="auto" solid-color="#000000" style="font-feature-settings:normal;font-variant-alternates:normal;font-variant-caps:normal;font-variant-ligatures:normal;font-variant-numeric:normal;font-variant-position:normal;isolation:auto;mix-blend-mode:normal;paint-order:normal;shape-padding:0;text-decoration-color:#000000;text-decoration-line:none;text-decoration-style:solid;text-indent:0;text-orientation:mixed;text-transform:none;white-space:normal"/><path d="m531.54 221.31v5.1e-4c-0.0223 9.7e-4 -0.0381 0.0106-0.0604 0.0114l8e-3 -8e-3c0.016-1e-3 0.0329-2e-3 0.0527-4e-3z" color="#000000" color-rendering="auto" dominant-baseline="auto" image-rendering="auto" solid-color="#000000" style="font-feature-settings:normal;font-variant-alternates:normal;font-variant-caps:normal;font-variant-ligatures:normal;font-variant-numeric:normal;font-variant-position:normal;isolation:auto;mix-blend-mode:normal;paint-order:normal;shape-padding:0;text-decoration-color:#000000;text-decoration-line:none;text-decoration-style:solid;text-indent:0;text-orientation:mixed;text-transform:none;white-space:normal"/><path d="m435.96 46.087c1.0852 0.4477 1.3258 0.5684 3.5021 1.4123 1.9596 0.7599 4.3022 1.6437 6.9205 2.5854 1.4123 0.508 3.0695 1.0505 4.6256 1.5818 0.0283 1.0716-0.29615 2.1228-0.92345 2.9921l-0.34573 0.4764c-2.1089 2.8995-6.5172 2.6207-8.2439-0.5214-0.86368 1.005-1.5826 1.6903-2.4965 2.9022-4.1438 5.4947-7.9967 12.761-8.0801 19.274-0.0575 4.4847 0.52459 9.6646 1.7327 14.716 0.21533 0.8996 0.17126 1.8417-0.1271 2.7172-4.1718 12.24-7.7597 25.846-8.7245 37.863-0.96449 12.012 0.80325 22.074 5.965 28.086 5e-3 6e-3 8.8e-4 7.7e-4 0.0331 0.0372 0.0385 0.0443 0.0763 0.0892 0.11316 0.13488 2.2657 2.7839 5.4808 5.2771 9.7581 7.3458 0.0104 5e-3 0.0207 0.0103 0.031 0.0155 2.9462 1.4517 6.2434 2.6031 9.8474 3.4685l0.0372 8e-3c3.9282 0.97549 8.3463 1.6833 13.229 2.0784 2.7668 0.22397 4.7931 2.7025 4.4628 5.4586l-0.0176 0.13126c-0.0216 0.18321-0.0535 0.36506-0.0956 0.54467-0.0726 0.30575-3.0455 13.197-3.2504 23.133v2e-3c-0.0674 3.2688 0.21471 6.2 0.71313 7.8672 0.3806 1.2731 0.33586 1.0386 0.28112 1.0036 0.40032-0.4635 2.8732-3.6203 4.5294-8.5545 4e-3 -0.0111 8e-3 -0.0221 0.0119-0.0331 0.0411-0.11622 0.0866-0.23085 0.13641-0.34364-4e-3 8e-3 -0.0194 0.0365-0.0212 0.0408-0.0307 0.0732-0.043 0.10348-0.0527 0.12867-0.0194 0.0504-0.0244 0.0662-0.0294 0.0801-0.0101 0.0277-0.0125 0.0329-0.014 0.0372-3e-3 9e-3 -4e-3 0.0103-4e-3 0.0103l-0.016 0.0465c3.3356-9.956 5.0467-23.644 5.2074-25.031 0.27533-2.3792 2.2327-4.2093 4.625-4.3243 2.096-0.1 4.3652-0.34089 6.5722-0.53123 7e-3 -0.35007-0.12067-0.49657-0.0253-0.94518 0.0842-0.39584 0.39751-0.8351 0.63251-1.2676 0.0923-0.22538 0.20129-0.44354 0.32608-0.65268 0.0795-0.11329 0.11837-0.21037 0.20515-0.31988 0.47235-0.67437 1.1072-1.2186 1.8459-1.5823 9e-3 -4e-3 0.0147-0.0156 0.0232-0.0196 0.0486-0.0209 0.0975-0.0411 0.14674-0.0605 0.0175-9e-3 0.0351-0.017 0.0527-0.0253 0.0125-5e-3 0.0187-5e-3 0.031-0.01 0.25789-0.10717 0.52449-0.19206 0.79687-0.25374 0.078-0.0196 0.18857-0.0668 0.25992-0.0822 0.62421-0.13344 1.2685-0.14345 1.8965-0.0295l5.0524-0.94929c0.0579-0.0109 0.11593-0.0207 0.17415-0.0294 2.709-0.40826 5.5059-0.8758 9.6604-1.5818 2.3603-0.40001 4.6634 0.96682 5.4431 3.2303 0.0644 0.18682 0.13917 0.39137 0.20931 0.59013 3.3148-0.43545 6.8676-0.98396 10.998-1.9105 3.0838-0.69053 6.0035 1.6801 5.9609 4.84l-0.0295 2.1833c-1e-3 0.13889-8e-3 0.27768-0.0212 0.41597-0.52533 5.3146-3.0957 28.335-3.0957 28.335s3.6824 6.901 4.2734 8.1341c0.0427 0.0891 0.0198 0.0457 0.0548 0.11729 0.032-0.0559 0.065-0.11124 0.0992-0.16587 0.9347-1.4538 2.1188-4.8438 2.9238-8.9142 3e-3 -0.0164 5e-3 -0.0328 8e-3 -0.0491 2.1912-11.134 2.332-27.131 2.2872-32.299-1e-3 -0.13033 2e-3 -0.26066 0.0114-0.39069l0.0941-1.326c-0.13436-2.2921 1.3433-4.3693 3.5528-4.994 4.8775-1.356 9.6406-2.7518 13.929-4.0235 0.0117-4e-3 0.0234-8e-3 0.0351-0.0119 0.64656-0.18632 0.47593-0.14306 1.0196-0.30231-5.3243-17.968-8.749-36.276-10.547-47.746-0.52217-3.3655 2.4685-6.2215 5.8064-5.5449 0.49294-0.57 0.92435-1.4916 1.1074-3.7636 0.25641-3.1818-0.31353-7.7724-1.3301-12.336-0.053-0.2371-0.0882-0.4779-0.10541-0.7203-0.0462-0.6555-0.74258-4.8049-4.6622-15.11-6e-3 -0.014-0.0118-0.029-0.0176-0.043-0.43357-1.1727-0.75572-1.9971-0.98237-2.5683-5e-3 -0.013-9e-3 -0.026-0.0134-0.039l4e-3 0.018c-0.0827-0.2083-0.14401-0.3682-0.16796-0.4274-0.19368-0.4787-0.31036-0.985-0.3457-1.5001-0.0153-0.2228-0.038-0.4502-0.0666-0.6837-0.0163-0.1298-0.0273-0.2601-0.0331-0.3907-0.0845-1.9934-1.4858-5.7711-3.5373-9.3555-0.0186-0.032-0.0369-0.065-0.0548-0.098-1.6668-3.0727-3.8973-6.4136-6.3361-9.8439h-0.27749c0.80997-0.3465 1.7342-0.7169 2.496-1.0506 2.3902-1.0467 4.5276-2.019 6.3154-2.8504 0.31162-0.1449 0.2114-0.1048 0.50128-0.2408 2.1592 3.1022 4.2026 6.1968 5.8751 9.2749 2.4049 4.2082 4.5708 8.7474 4.7894 13.717 5.3e-4 1e-3 5.6e-4 0 2e-3 0.01l-0.0289-0.3669c0.0158 0.1287 0.0236 0.2578 0.0372 0.3866 0.23855 0.6029 0.56031 1.4245 0.98599 2.5745 4e-3 0.01 4e-3 0.011 8e-3 0.021s4e-3 0.012 8e-3 0.022c3.8056 10.011 4.897 14.47 5.1806 17.262 1.1184 5.048 1.9005 10.261 1.5084 15.127-0.35367 4.3889-2.1204 9.0718-6.1407 11.65 2.0538 12.35 5.3837 29.69 10.719 46.445 0.1526 0.47941 0.23034 0.97948 0.23048 1.4826v2e-3c-4.3e-4 2.1412-1.3932 4.0333-3.4375 4.67 0 0-2.1702 0.67678-5.8007 1.7229-3.2395 0.96049-6.9265 2.0159-10.584 3.0566 0.028 6.2146-0.10189 20.155-2.3673 32.009-0.0153 0.15603-0.038 0.31124-0.0682 0.46509-6.6e-4 6e-3 -1e-3 0.0117-2e-3 0.0176-0.91194 4.6286-2.0606 8.7819-4.2462 12.23-1.3058 2.2338-3.5723 4.9494-7.3727 5.209-0.0703 9e-3 -0.14409 4e-3 -0.21497 0.0119 0 0-0.10629-0.0461-0.2031 0.0134-0.44423 0.0387-0.88085 0.10988-1.3358 0.0801-3.9549-0.25943-6.7551-3.3361-8.1328-6.2105-1.3778-2.8744-2.0424-6.0927-2.4924-9.6056-7.1e-4 -0.0117-0.0422-0.34871-0.0547-0.45316-0.0214-0.18285-0.18622-21.07 0.39039-27.79-2.6949 0.89323-33.336 5.4075-35.91 5.5886-0.63852 4.7952-1.9893 13.865-5.055 23.016-4e-3 0.0131-9e-3 0.0262-0.0134 0.0393l-2e-3 8e-3s-6e-3 0.017-0.0155 0.0429c-5e-3 0.0129-9e-3 0.026-0.0217 0.0605-6e-3 0.0173-0.0128 0.0373-0.0331 0.0899-2.0208 6.0188-4.0253 11.785-9.9064 14.453-1.2917 0.63108-2.957 1.0388-4.6912 0.81028-0.22445-0.03-0.48231-0.0638-0.678-0.11678-0.19902-0.0539 0.0895 0.0186 0.31832 0.0703-0.24802-0.0317-0.48456-0.046-0.74414-0.10181-4.238-0.91136-6.6759-4.6995-7.6853-8.076-1.0003-3.3459-1.1927-6.9823-1.1193-10.771h0.0155c1e-3 -0.041 3e-3 -0.082 6e-3 -0.123l-0.0233 0.0212c0.16542-8.0218 1.4629-15.161 2.449-19.955-3.256-0.43601-6.4054-0.96382-9.3183-1.6857l-4e-3 -2e-3c-4.1887-1.0061-8.1659-2.374-11.859-4.1915-5.3184-2.5738-9.7539-5.894-13.071-9.9668-7.7902-9.088-9.3527-21.902-8.2832-35.223 1.0371-12.917 4.6668-26.619 8.8263-39.01-1.1609-5.3289-1.7997-10.682-1.7363-15.629 0.12789-9.9839 5.2612-18.687 10.051-25.039 1.7317-2.2962 3.2713-3.9186 4.7739-5.5386zm107.64 22.831 0.0119 0.058v-0.01c-5.3e-4 0-0.0119-0.051-0.0119-0.051zm-121.26 97.617 0.0992 0.11729c0.0124 0.0142-8e-3 -9e-3 -0.0605-0.0687-8e-3 -9e-3 -0.0156-0.0182-0.0233-0.0274-6e-3 -7e-3 -0.01-0.0144-0.0155-0.0212zm36.76 35.764c-4e-3 8e-3 -0.0739 0.12867-0.0739 0.12867 0.0233-0.0119 0.0468-0.0236 0.0703-0.0351zm84.35 0.586c-2e-3 0.1244-8e-3 0.24869-0.0196 0.37259l0.01-0.0739 0.0103-0.14261zm-85.713 4.254-2e-3 8e-3c-3e-5 0 0.0629 0.0121 0.078 0.0155-0.0254-8e-3 -0.0507-0.0153-0.076-0.0232zm0.23204 0.0568c0.11266 0.0257 0.23479 0.0549 0.30695 0.0661 0.0679 0.0105 0.0348 3.9e-4 0.0879 8e-3 -0.13256-0.0192-0.26427-0.0439-0.39481-0.0739zm0.96531 0.11679c-0.0227 1.6e-4 -0.0455 1.6e-4 -0.0682 0 9e-3 -2.4e-4 0.059 6e-3 0.0682 6e-3zm72.244 4.2323c-0.0138 6e-5 -0.0275 6e-5 -0.0413 0-0.0223 7.9e-4 -0.0137 5e-3 -0.0351 6e-3 0.024-2e-3 0.0627-5e-3 0.0765-6e-3z" color="#000000" color-rendering="auto" dominant-baseline="auto" image-rendering="auto" solid-color="#000000" style="font-feature-settings:normal;font-variant-alternates:normal;font-variant-caps:normal;font-variant-ligatures:normal;font-variant-numeric:normal;font-variant-position:normal;isolation:auto;mix-blend-mode:normal;paint-order:normal;shape-padding:0;text-decoration-color:#000000;text-decoration-line:none;text-decoration-style:solid;text-indent:0;text-orientation:mixed;text-transform:none;white-space:normal"/></g><path d="m459.2 202.45s3.4466 2.2396 5.4159 2.6143c3.1076 0.59127 9.4642-0.69856 9.4642-0.69856s-4.3434 12.963-9.4356 12.22c-4.9963-0.72929-5.4445-14.135-5.4445-14.135z" fill="#e6e6e6" style="paint-order:normal"/><path d="m524.15 204.5s2.52 12.091 7.153 11.927c5.0037-0.17661 6.7978-13.394 6.7978-13.394s-4.9693 2.6239-7.6932 2.813c-2.1285 0.14778-6.2576-1.3462-6.2576-1.3462z" fill="#e6e6e6" style="paint-order:normal"/><g fill="#ffdab9"><path d="m524.65 171.3-0.44933 33.637 5.5834 0.95622 8.7648-3.0091 2.5199-35.271z"/><path d="m462.44 177.87-2.9462 24.624 6.4984 2.7496 7.929-1.3684 5.6392-26.005z"/><path d="m544.59 103.87c-1e-4 0.1606 3.3467 9.3687 7.9166 5.373 6.1055-5.3382 2.0162-20.128 1.9317-20.115z" style="paint-order:normal"/></g><path d="m535.93 43.504-92.012 1.032-8.2 9.5431-0.1514 1.2723c-4.8283 6.5777-9.7257 14.961-9.0982 21.279 0.43098 4.3385 0.99909 9.8194 2.0112 15.441-7.7482 22.979-13.627 45.528-6.1236 65.007 6.5107 16.294 30.669 24.6 68.688 20.332 2.1206-0.23815 16.474-2.8751 19.459-3.1605 13.665-1.307 36.414-8.2759 50.214-12.362-7.2387-22.734-11.199-47.512-12.683-58.064-0.27745-1.9717-0.45207-3.309-0.57052-4.2385l6.9639-10.392s1.2458-1.913-5.9314-20.232l4e-3 -0.028c-0.014-0.021-0.0249-0.039-0.0372-0.058-0.0534-0.1361-0.0971-0.2534-0.15142-0.3912-0.48953-7.3163-5.7899-15.969-12.38-24.98z" fill="#aa87de"/><g fill="none" stroke="#8b4513" stroke-linecap="round" stroke-width="1.8468"><path d="m548.18 68.15s15.288 36.927 3.1268 42.266c-0.89923 0.3947-1.8477 0.086-2.7895-0.6587"/><path d="m427.91 92.585c-7.0733 25.677-12.888 55.375-1.8558 70.783 11.622 16.232 38.235 16.581 65.398 13.446l17.899-2.4321c27.057-4.8941 51.364-12.494 51.364-12.494s-19.511-59.765-12.667-92.099c1.998-9.4391-13.354-26.907-13.354-26.907"/><path d="m554.44 89.128-6.8338 10.23" style="paint-order:normal"/><path d="m462.42 178.14s-8.6492 36.166 1.5346 38.356c11.05 2.3763 15.604-38.618 15.604-38.618"/><path d="m524.85 171.76s-5.1849 44.039 5.4441 44.736c11.786 0.77319 10.611-48.834 10.611-48.834"/><path d="m459.01 202.43c4.9545 0.57192 2.35 5.0362 14.93 1.4487"/><path d="m524.08 203.9c3.3129 2.7622 7.8209 3.0013 14.558-1.4664"/></g><path d="m462.96 117.42c-0.34971 2.4487 22.882-12.734 17.175-22.427-3.4607-5.8773-17.294 3.8283-17.278 3.837z" fill="#ffdab9" style="paint-order:normal"/><path d="m447.65 81.473c0.71838 9.2302 3.1222 13.265 8.6979 16.956 6.6168 4.3804 20.462-11.076 23.509-3.7485 5.407 13.001-21.125 30.293-34.128 24.892-13.126-5.4523-19.908-27.128-19.707-42.847 0.21141-16.496 17.973-31.941 17.973-31.941" fill="none" stroke="#8b4513" stroke-linecap="round" stroke-width="1.8468"/><path d="m462.96 117.42-0.10304-18.59" fill="none" stroke="#8b4513" stroke-linecap="round" stroke-width="1.8468" style="paint-order:normal"/><path d="m460.31 50.183c-0.0611 0.2035 25.576 24.867 33.81 23.762 10.817-2.0673 21.978-23.684 21.454-24.034z" fill="#ffdab9"/><path d="m460.31 50.183s23.49 24.169 34.489 23.898c11.165-2.0174 21.136-23.944 20.775-24.169" fill="none" stroke="#8b4513" stroke-linecap="round" stroke-width="1.8467"/><g fill="#ffdab9"><path d="m632.67-92.598c11.03 85.375-95.754 148.87-147.07 147.79-50.621-1.0618-154.47-68.248-139.54-143.76 49.335-115.81 284.71-65.272 286.6-4.0366z"/><ellipse cx="621.98" cy="-35.188" rx="6.5665" ry="10.006" style="paint-order:normal"/><path d="m619.86-33.065c-1.7378-0.4537-2.1475-1.6776-1.6939-3.4154 0.4536-1.7377 2.2301-2.7788 3.9679-2.3251" style="paint-order:normal"/></g><g><path d="m616.9-26.048c0.1457 0.1942 6.5023 19.964 6.5023 19.964l2.4288-19.256c-2.8088 0.4741-5.8151 0.1142-8.9311-0.7078z" fill="#ff4500" style="paint-order:normal"/><path d="m413.21-52.851c-11.635-0.6929-14.272-1.8462-19.402-4.8535 1.6388 2.7596 8.1581 6.2273 11.322 6.3946-4.9461 1.4937-12.33-3.8394-16.13-5.7841 4.3146 3.9712 7.7284 7.8152 15.507 9.5237z" fill="#8b4513" style="paint-order:normal"/><path d="m416.04-57.591c-9.1676 0.761-12.891 11.378-13.124 19.302-0.3169 8.3766 2.6285 19.535 11.91 21.712 8.83 0.835 13.54-9.0726 14.296-16.524 0.9821-8.8085-1.2051-20.348-10.317-24.071-0.9032-0.2787-1.8205-0.4158-2.7652-0.4187z" fill="#32cd32" stroke="#8b4513" stroke-linecap="round" stroke-width="1.8468" style="paint-order:normal"/><path d="m558.64-165.96-0.32562 0.1603-6.8349-1.809-0.17444-0.3782-0.29981-0.082c-25.34-7.0574-49.184-9.5442-80.773-8.248-43.451 1.7827-93.115 15.656-114.1 43.79-13.778 18.474-21.363 38.076-17.796 71.838-0.18871 6.6206 4.8764 19.581 10.755 30.524 0.88374 1.6453-8.0104 1.6859-8.0332 3.5492-0.01 0.8343 9.7514 0.3292 10.802 1.7969 8.4188 11.759 18.713 28.191 24.225 32.709 1.4152 1.1598-6.9842-14.308-11.386-23.366-2.5509-5.2502-5.1037-9.5159-5.5088-10.077 5.6409-1.7504 33.898-9.8942 33.898-9.8942 10.071-3.252 32.468-17.942 32.468-17.942 14.929-0.4775 21.357-0.607 41.145-12.85 7.2048-4.4577 13.022-7.2012 18.18-10.723 24.529-16.752 33.501-25.19 50.039-29.127 10.979-2.2953 32.049-2.3137 33.913 1.0436 7.1884 14.703 36.955 45.158 44.317 56.568 5.2996 8.2134 9.1422-1.5446 13.776 5.1534 0 0 11.882-28.409 7.4139-53.089-2.4149-13.339-10.361-34.178-25.238-45.231-16.555-12.3-31.061-18.855-50.466-24.314z" fill="#ff4500" style="paint-order:normal"/></g><g fill="none" stroke="#8b4513" stroke-linecap="round"><g><path d="m617.19-41.426s0.3279-4.2342 4.2809-4.2342c3.9532 0 7.1577 4.7516 7.1577 10.613s-3.2045 10.613-7.1577 10.613c-3.953 0-5.7818-6.6107-5.7818-6.6107" stroke-width="1.8468" style="paint-order:normal"/><path d="m359.44-25.446c24.396 45.798 96.095 80.957 128.14 80.957 32.426 0 104.9-34.949 129-81.648" stroke-width="1.8467"/><path d="m619.86-33.065c-1.7378-0.4537-2.1475-1.6775-1.6939-3.4154 0.4537-1.7377 2.2301-2.7788 3.9679-2.3251" stroke-width="1.8468" style="paint-order:normal"/></g><g stroke-linejoin="bevel" stroke-width="1.4334"><path d="m483.56-117.77c-14.469 46.386-98.031 99.939-146.39 91.448 37.971-8.1934 70.201-23.801 83.488-63.878" style="paint-order:normal"/><path d="m426.09-53.313c49.697 1.8482 67.654-48.089 85.041-76.886" style="paint-order:normal"/><path d="m364.9-16.608c3.4457 11.45 10.307 21.62 16.537 32.026-1.5286-1.9108-17.052-19.682-29.238-40.418m-2.8831-4.3932c-6.7041-11.408-10.472-21.138-10.982-29.745-2.2525-38.057 3.5887-63.19 29.9-86.206 29.009-25.375 95.645-35.149 133.97-31.065 17.636 1.8791 31.69 3.7911 48.62 8.3719m7.345 2.1966c34.26 9.2704 60.41 24.087 71.402 51.562 16.802 41.995-4.9267 58.622-1.4589 75.341" style="paint-order:normal"/></g></g><path d="m479.91-180.61c-32.692 0.3127-101.36 0.7635-135.29 56.187a2.9354 2.9354 0 1 0 5.0065 3.065c32.093-52.417 97.639-53.069 130.34-53.382 37.558-0.3594 96.76 7.377 123.97 30.832 12.803 11.038 16.93 33.966 17.324 54.32 0.3937 20.354-2.6638 37.768-2.6638 37.768a2.9354 2.9354 0 1 0 5.7804 1.0186s3.1599-17.895 2.7535-38.901c-0.4063-21.006-4.0961-45.49-19.363-58.652-29.824-25.712-89.483-32.622-127.85-32.255z" color="#000000" color-rendering="auto" dominant-baseline="auto" fill="#808080" image-rendering="auto" shape-rendering="auto" solid-color="#000000" stroke="#8b4513" stroke-linecap="round" stroke-linejoin="round" stroke-width="1.7611" style="font-feature-settings:normal;font-variant-alternates:normal;font-variant-caps:normal;font-variant-ligatures:normal;font-variant-numeric:normal;font-variant-position:normal;isolation:auto;mix-blend-mode:normal;paint-order:fill markers stroke;shape-padding:0;text-decoration-color:#000000;text-decoration-line:none;text-decoration-style:solid;text-indent:0;text-orientation:mixed;text-transform:none;white-space:normal"/><g fill="none" stroke="#8b4513" stroke-linecap="round"><g stroke-linejoin="bevel" stroke-width="1.4334"><path d="m469.71-67.394c31.454-17.142 57.811-50.669 98.574-37.892" style="paint-order:normal"/><path d="m564.17-115.72c7.4494 21.594 35.362 48.165 52.753 72.054" style="paint-order:normal"/><path d="m605.08-107.76c-6.1749 15.523 7.7158 44.885 12.082 63.702" style="paint-order:normal"/><path d="m620.46-85.517c-4.327 7.1718-3.6528 23.721-2.1966 41.736" style="paint-order:normal"/></g><path d="m616.95-25.354 6.4072 19.513c0.9631-7.0897 0.366-13.313 3.3977-21.552" stroke-linejoin="round" stroke-width="1.4331" style="paint-order:normal"/></g><g><g stroke="#8b4513" stroke-linecap="round" stroke-linejoin="round" stroke-width="1.7611"><path d="m616.98-28.104s-5.6756 6.7195-13.403 14.188c-7.7272 7.4685-17.605 15.633-25.273 18.424-2.952 1.0746-8.8361 1.374-13.775 1.2555-4.9393-0.1184-9.0078-0.5542-9.0078-0.5542l-0.41656 3.8924s4.2131 0.4506 9.3307 0.5734c5.1177 0.1227 11.066 0.018 15.209-1.4906 8.8976-3.2386 18.77-11.668 26.653-19.286 7.8823-7.6184 13.674-14.479 13.674-14.479z" color="#000000" color-rendering="auto" dominant-baseline="auto" fill="#808080" image-rendering="auto" shape-rendering="auto" solid-color="#000000" style="font-feature-settings:normal;font-variant-alternates:normal;font-variant-caps:normal;font-variant-ligatures:normal;font-variant-numeric:normal;font-variant-position:normal;isolation:auto;mix-blend-mode:normal;paint-order:fill markers stroke;shape-padding:0;text-decoration-color:#000000;text-decoration-line:none;text-decoration-style:solid;text-indent:0;text-orientation:mixed;text-transform:none;white-space:normal"/><rect x="553.81" y="3.9277" width="12.254" height="6.7502" ry="3.3751" fill="#2b0000" style="paint-order:fill markers stroke"/><ellipse cx="621.88" cy="-34.319" rx="9.4048" ry="17.009" fill="#808080" style="paint-order:fill markers stroke"/></g><path d="m563.35-184.68c-3.9847 5.5647-10.187 10.936-12.284 18.021l-0.6239-0.1714 0.17445 0.3783c1.9986 3.6794 4.2972 4.0599 6.8349 1.8089l0.32562-0.1603c-0.21654-0.061-0.41574-0.1264-0.63351-0.1871h-0.0107c1.0476-6.6519 4.0115-13.136 6.2161-19.687z" fill="#ff4500" style="paint-order:normal"/></g><path d="m550.17-163.77c2.638-9.6737 9.8626-17.627 16.475-25.811-4.4324 9.5922-10.545 18.933-8.2374 28.007" fill="none" stroke="#8b4513" stroke-linecap="round" stroke-linejoin="bevel" stroke-width="1.4334" style="paint-order:normal"/><path d="m442.26-8.6641c8.7546-5.1934 80.67-6.7322 99.58 0-1.5716 25.603-30.387 33.161-53.774 32.77-19.184-0.32064-43.454-10.06-45.806-32.77z" fill="#500" style="paint-order:normal"/><path d="m458.76 16.849c18.595-4.6421 37.033-6.4942 65.803-0.60745-8.6783 10.175-63.68 8.1113-65.803 0.60745z" fill="#f08080"/><path d="m458.43 16.3s22.434-3.256 33.718-3.3149c11.059-0.05765 33.073 2.9041 33.073 2.9041" fill="none" stroke="#8b4513" stroke-linecap="round" stroke-linejoin="bevel" stroke-width="1.9338" style="paint-order:normal"/><g><path d="m569.24-52.851c11.635-0.6929 14.272-1.8462 19.402-4.8535-1.6388 2.7596-8.1581 6.2273-11.322 6.3946 4.9461 1.4937 12.33-3.8394 16.13-5.7841-4.3146 3.9712-7.7284 7.8152-15.507 9.5237z" fill="#8b4513" style="paint-order:normal"/><path d="m566.26-57.591c-9.1676 0.761-12.891 11.378-13.124 19.302-0.3169 8.3766 2.6285 19.535 11.91 21.712 8.83 0.835 13.54-9.0726 14.296-16.524 0.9821-8.8085-1.2051-20.348-10.317-24.071-0.9032-0.2787-1.8205-0.4158-2.7652-0.4187z" fill="#32cd32" stroke="#8b4513" stroke-linecap="round" stroke-width="1.8468" style="paint-order:normal"/><path d="m441.12-7.8931 100.75-0.09424c-16.031-7.2204-78.297-6.3333-100.75 0.09424z" fill="#fff" style="paint-order:normal"/><path d="m542.24-8.2562c0.0448 0.17016-100.82 0.38494-100.82 0.38494-0.15862 0.53405-0.0245 0.46885-0.19531 1.2318l101.04-0.14297c-0.18367-1.0771-0.0274-1.4737-0.0274-1.4737z" color="#000000" color-rendering="auto" dominant-baseline="auto" fill="#8b4513" image-rendering="auto" shape-rendering="auto" solid-color="#000000" style="font-feature-settings:normal;font-variant-alternates:normal;font-variant-caps:normal;font-variant-ligatures:normal;font-variant-numeric:normal;font-variant-position:normal;isolation:auto;mix-blend-mode:normal;paint-order:normal;shape-padding:0;text-decoration-color:#000000;text-decoration-line:none;text-decoration-style:solid;text-indent:0;text-orientation:mixed;text-transform:none;white-space:normal"/></g><path d="m441.47-9.1852c30.199-3.8992 60.912-7.1828 100.21-0.17372 1.1166 24.561-30.229 33.856-53.616 33.465-19.184-0.32064-44.244-8.3225-46.597-33.291z" fill="none" stroke="#8b4513" stroke-linecap="round" stroke-linejoin="round" stroke-width="1.9338" style="paint-order:normal"/></g></g></svg>
