<?xml version="1.0" encoding="UTF-8"?>
<svg width="1500" height="1500" version="1.1" viewBox="0 0 396.87 396.88" xmlns="http://www.w3.org/2000/svg"><g transform="translate(0 99.875)"><g transform="matrix(.90046 0 0 .90046 98.263 116.78)"><g><path d="m187.5-213.71c-5.3766 6.654-11.176 13.15-14.32 20.641l-0.57142-0.15655c-13.678-3.8094-26.899-6.2189-41.264-7.368-1.7038-0.19256-3.4314-0.38277-5.2039-0.57142-36.494-3.8887-99.948 5.4187-127.57 29.582-11.796 10.318-19.269 21.083-23.654 33.369-4.8044 12.18-6.8117 26.465-4.9849 45.576 0.047 1.0383 0.10411 2.0847 0.16673 3.1437 0.47984 8.106 4.0006 17.261 10.254 27.971-0.51975 1.014-5.5905 1.2997-7.1831 2.3326-1.385 0.32485-2.778 0.63952-4.1803 0.94166 3.9778 0.69822 8.206 0.95583 12.62 0.81509 0.67631 0.15186 1.1756 0.3499 1.3673 0.6176 1.0202 1.4249 2.0701 2.9235 3.1351 4.46 11.053 17.699 23.691 32.183 25.031 33.858-2.1262-3.5518-4.3282-7.0751-6.4315-10.635-1.8162-3.7166-4.9668-9.7266-7.5875-14.921-0.61369-1.5481-1.1697-3.1179-1.6572-4.7133 10.146 14.792 25.155 28.14 41.448 39.039 10.938 7.6125 22.38 13.978 33.439 18.795-8e-3 0.0078-0.15264 0.14872-0.20978 0.20352l-0.10411-0.03131s0.0235 0.08845 0.0313 0.10411c-1.309 1.2675-9.5754 9.368-15.033 17.027-0.47749 0.62073-0.93258 1.2917-1.3677 2.0086-0.93117 1.4376-1.7258 2.8305-2.3018 4.1216-4.14 9.2792-5.2375 18.491-6.0165 28.47-0.42504 4.1908-0.64108 7.6877-0.74911 9.9509-0.0884 1.0865-0.18316 2.1842-0.2857 3.2936l-0.18082-0.0156c-0.14325-0.0548-1.3438 5.4864-1.0264 10.068-0.0798 0.5268-0.16125 1.0557-0.24892 1.5888-0.21212 1.2944 0.43287 2.3748 1.5613 3.0807 0.91763 1.2634 2.387 1.7488 4.6675 0.80061 3.1699-0.4587 6.6667-2.7399 8.2201-7.8407-0.19413 3.2532-0.26692 7.3864 0.10097 11.779 0.19648 8.3456 1.5922 15.231 4.967 18.746 0.33267 0.34676 0.66691 0.67161 1.0024 0.98502 0.0235 0.0391 0.0548 0.0806 0.0791 0.11977 0.51428 0.57454 1.11 1.0855 1.777 1.5406l-0.24422-0.0548c3.7822 5.097-21.971 54.254-13.974 57.806 0.0313 0.0156 0.0548 0.0313 0.0845 0.047 4.8552 2.5861 12.898-8.0094 13.251-9.2268 0.12055-0.16516 0.24188-0.33033 0.36242-0.49784 0.15968-0.0548 0.31858-0.1088 0.48453-0.16986 0.9725-1.5344 2.2795-3.7054 3.7355-6.2842 3.278-5.4268 6.246-11.196 8.5864-15.585 4.48-8.4008 5.642-21.788 5.642-21.788l-1.2681-0.30058c2.0416-0.10489 4.1822-0.30841 6.4363-0.53698 10.376-0.23796 21.795-1.1081 30.518 0.51193 0.46417 0.0861 0.60429-0.17221 0.59098-0.54872 0.96311-0.17455 1.9164-0.35146 2.8732-0.52836 2.3754-0.39373 5.8444-1.061 9.83-1.866 20.406-3.9829 36.983-7.8484 36.983-7.8484s-8e-3 -0.0884-8e-3 -0.0916c2e-3 0 0.16046-0.0391 0.16046-0.0391-0.37494-6.3935-1.0767-18.126-1.6316-27.428 4.0648-0.51741 6.1979-4.8444 6.9365-11.3 0.46731-2.7397 0.40156-4.8772 0.36946-4.8842l-0.0783 0.0391c0.13228-8.2377-1.3279-18.648-3.6214-28.874-0.0783-0.55968-0.14873-1.12-0.21839-1.6807l-0.46418-1.2653c-0.29119-1.2099-0.59568-2.4113-0.90699-3.6055-0.96021-4.9396-4.553-10.8-7.665-15.159-1.1687-2.0583-2.3361-4.1228-3.4649-6.3804l-0.85212 0.2677c19.556-8.6653 39.892-21.87 56.582-38.521 4e-3 -0.0041 8e-3 -0.0078 8e-3 -0.0078 0.2771-0.27631 0.5542-0.55341 0.82957-0.83192 2.4652-2.4702 4.8204-5.0022 7.0343-7.5957 4.9331-5.6938 9.4166-11.724 13.304-18.054l6.0662 18.474c0.0156-0.0908 0.0235-0.18004 0.0313-0.27084 0 1.56e-4 0.0156 0.03914 0.0156 0.03914l2.1477-17.028c0.2865-1.0542 0.62778-2.1386 1.0414-3.2636l-0.37103 0.07828c1.3233-1.8435 2.151-4.4603 2.151-7.365 0-1.372-0.18551-2.6795-0.51975-3.8722-0.42817-2.1755-0.41565-4.3512-0.11115-6.5885 1.245-3.4135 3.4146-9.9478 5.0171-17.912 3.1388-11.268 5.0545-25.728-3.4861-47.076-8.3572-20.889-25.916-34.093-49.259-43.061-5.8752-2.3913-12.061-4.4307-18.891-6.3329h-8e-3c0.75849-4.8161 2.5714-9.5399 4.3199-14.269 1.28-2.6605 2.6661-5.342 3.9151-8.0448zm48.741 155.18c0.23561 0.31232 0.49079 0.60977 0.76867 0.87669l-0.1362 0.03131c-0.34363-0.07045-0.68883-0.15264-1.0361-0.23874 0.13463-0.2223 0.27083-0.44383 0.40312-0.66613zm-246.16 0.97924c0.11272 0.18473 0.22387 0.37025 0.33737 0.55498 1.444 2.6745 3.0564 5.3106 4.8192 7.9028l-0.9282-0.61368c-2.1048-4.1511-4.018-7.3371-4.3565-7.8061 0.0313-0.0078 0.0978-0.03131 0.12838-0.03914zm245.48 0.1362c6e-3 0.01566 0.0156 0.03914 0.0235 0.05479l-0.0626 0.01566c0.0156-0.02348 0.0313-0.04697 0.0391-0.07045zm-165.18 66.501c0.88295 0.38434 1.7636 0.75928 2.6412 1.1237l-2.6889-0.8709zm91.152 101.47-22.344 4.2699c-0.0157 0.21917-0.047 0.45948-0.0626 0.68335l-0.10333 0.0235c0.0313 0.0939 0.047 0.19648 0.0704 0.29824-0.51271 5.4158-1.4054 12.249-2.3826 19.132-1.933 9.5248-4.2311 20.325-4.2083 27.98-0.2998 3.7294 0.50331 9.3742 4.1967 9.8233 1.5213 0.36242 3.1788-0.41721 4.8934-2.0567 3.4178-3.0096 6.1535-8.3139 6.3516-9.2523 0.0626-6e-3 0.12916-0.0156 0.19021-0.0235 8e-3 -0.0157 0.0157-0.0391 0.0235-0.0548 6e-3 0 0.0157 8e-5 0.0157 0l-0.0157-2e-3c0.72093-1.4561 1.4628-3.1159 2.2094-4.9357 6.8646-15.246 12.436-36.852 11.281-45.467l-0.13463 0.0235c4e-3 -0.14795 0.0157-0.30137 0.0157-0.44618zm-42.05 7.7363-0.047 0.14638c-3e-3 -0.047-3e-3 -0.0932-8e-3 -0.14325 0.0157 0 0.0391-2e-3 0.0548-4e-3z" fill="#2165b6" stroke="#fff" stroke-linecap="round" stroke-linejoin="round" stroke-width="9.3164"/><path d="m158.54 7.5313-39.265 12.325-23.769-2.4674-8.6645-2.7062-16.799-5.4446s0.0704 0.227 0.0806 0.25518c-0.0814 0.07906-7.3332 7.1694-14.87 16.597-10.017 12.53-10.756 47.533-10.756 47.533l13.494 1.4764s-4.0091 24.582 5.4688 38.424c8.3147 9.2822 37.521 2.142 55.393 5.4608 0.52759 0.0978 0.63482-0.24736 0.57455-0.70762 4.741-0.13385 49.851-10.21 49.851-10.21-0.53149-9.0665-2.3138-38.897-2.3138-38.897l7.3943-4.7449c0.29432-10.377-2.0689-20.345-3.321-30.483l-1.9376-5.2829c-3.1477-8.9113-7.0402-14.084-10.562-21.127z" fill="#b1cdf1"/><path d="m166.75 69.05c-0.0548 0.14246 0.17378 11.551 0.17378 11.551 8.409-2.7932 8.1054-16.13 8.0259-16.148z" fill="#ffdab9" style="paint-order:normal"/></g><path d="m169.44 28.19c6.3137 23.752 8.956 51.828-2.2256 52.49" fill="none" stroke="#8b4513" stroke-linecap="round" stroke-width="1.7586"/><path d="m174.3 64.353-7.4478 4.8475" fill="none" stroke="#8b4513" stroke-linecap="round" stroke-width="1.7586" style="paint-order:normal"/><g><path d="m44.135 74.197c-0.27084-0.0971-4.3515 19.911 5.347 15.365 9.8687-4.6254 8.217-14.125 8.2091-14.11z" fill="#ffdab9" style="paint-order:normal"/><path d="m51.904 161.08 12.462 2.4682c0.0924 0.68883-8.2725 11.969-13.265 9.3102-3.9983-2.1297 0.80014-11.778 0.8028-11.778z" fill="#333" style="paint-order:normal"/><path d="m65.886 116.11c1.7106 2.5906-11.393 32.76-14.511 44.635 4.8999 1.1577 6.2164 5.026 13.824 2.2266 4.5287-7.1454 16.105-27.514 17.915-43.422-5.4154-0.29589-10.99-1.005-17.228-3.4395z" fill="#4d4d4d"/><path d="m139.2 114.82c-1.0841 12.217-4.3435 32.719-5.9981 43.671 1.8343 4.9874 9.5241 3.5486 14.943 2.9352 5.8534-11.788 13.067-37.162 13.398-50.876z" fill="#4d4d4d"/></g><g fill="#ffdab9"><path d="m250.38-121.36c10.503 81.298-91.181 141.76-140.04 140.73-48.204-1.0111-147.1-64.989-132.87-136.89 46.979-110.28 271.11-62.155 272.92-3.8438z"/><ellipse cx="240.19" cy="-66.688" rx="6.253" ry="9.5283" style="paint-order:normal"/><path d="m238.18-64.666c-1.6548-0.43208-2.045-1.5975-1.613-3.2522 0.43208-1.6548 2.1236-2.6462 3.7784-2.2142" style="paint-order:normal"/></g><g><path d="m134.41 159.95 2.2572 1.946 7.1484-0.14168 4.1185-0.45479c0.48688 0.0313-5.5254 12.073-11.181 11.46-5.5236-0.59803-4.6566-12.737-3.2463-13.09z" fill="#333" style="paint-order:normal"/><path d="m43.21-79.639a10.892 17.299 76.567 0 0-14.297 14.614 10.892 17.299 76.567 0 0 0.46887 1.2853 10.892 17.299 76.567 0 1 14.466-13.228 10.892 17.299 76.567 0 1 18.885 5.2918 10.892 17.299 76.567 0 0-0.16907-1.3861 10.892 17.299 76.567 0 0-19.354-6.5771z" fill="#8b4513" fill-rule="evenodd" style="paint-order:normal"/><path d="m185.19-210.14c-3.7944 5.299-9.7002 10.414-11.697 17.161l-0.87966-0.24187c-24.13-6.7204-46.835-9.0883-76.916-7.8541-41.376 1.6977-88.669 14.908-108.65 41.699-13.12 17.592-20.343 36.258-16.946 68.408-0.18003 6.3044 4.6432 18.646 10.241 29.066 0.84155 1.5667-7.6279 1.6053-7.6496 3.3796-8e-3 0.79442 9.2859 0.31389 10.286 1.7113 8.0168 11.197 17.819 26.844 23.068 31.146 1.3477 1.1044-6.6505-13.624-10.842-22.25-2.4291-4.9995-4.8599-9.0616-5.2457-9.5962 5.3715-1.6669 32.279-9.4219 32.279-9.4219 9.5897-3.0967 30.918-17.084 30.918-17.084 14.216-0.45478 20.338-0.57846 39.181-12.237 6.8608-4.2448 12.4-6.8572 17.312-10.211 23.358-15.952 31.901-23.988 47.649-27.736 10.455-2.1858 30.518-2.2031 32.294 0.99387 6.8452 14.001 35.191 43.001 42.201 53.866 5.0465 7.8211 8.7055-1.4706 13.118 4.9076 0 0 11.314-27.052 7.0598-50.553-2.2995-12.702-9.8662-32.546-24.032-43.072-15.94-11.844-29.868-18.098-48.659-23.331h-8e-3c0.99755-6.3343 3.8201-12.509 5.9194-18.747zm50.178 152.16c0.13855 0.18473 6.1918 19.01 6.1918 19.01l2.313-18.336c-2.6746 0.45165-5.5376 0.1088-8.5048-0.67396z" fill="#ff4500" style="paint-order:normal"/></g><path d="m112.12 27.084c3.946 22.338 4.3533 69.839 6.9931 91.579" fill="none" stroke="#8b4513" stroke-linecap="round" stroke-width="1.7586"/><path d="m97.176 18.138 16.11 8.4513c-0.45635-1.2775 16.608-8.9236 16.022-8.7154-0.6223 0.22152-32.133 0.26379-32.133 0.26379z" fill="#ffdab9"/><g fill="none" stroke="#8b4513" stroke-linecap="round"><path d="m155.99 8.8635s-3.0566 10.621-8.071 16.6c-3.4013 0.33189-6.6268-0.01565-9.8406-1.5301-20.97 10.454-24.478 1.7999-24.343 2.1964 1.7348-2.9968 7.8045-4.3497 12.577-6.5893l6.2929-3.0999" stroke-linejoin="round" stroke-width="1.7589"/><g stroke-width="1.7586"><path d="m113.43 26.344c2.0814 21.551 4.5721 68.157 5.7407 91.978"/><path d="m66.961 30.68s-18.054 67.711-4.5847 81.738c13.167 13.713 28.52 1.1648 56.675 6.2791m0.38668-0.26222c25.765-4.6605 49.688-10.243 49.688-10.243s-5.9024-44.234 0.61525-75.024c1.9026-8.9883-12.716-25.622-12.716-25.622"/><path d="m64.991 115.01c3.8936 5.2472-23.515 57.19-13.18 58.001 9.0731 0.71153 19.557-20.374 25.709-31.909 4.48-8.4007 5.6422-21.788 5.6422-21.788"/><path d="m70.4 9.0213s-14.927 14.278-19.032 23.478c-7.3378 16.447-5.1174 32.679-8.5077 53.354-0.87317 5.325 12.741 7.05 14.966-6.172l6.3358-37.655"/><path d="m133.83 159.95c2.9845 5.0531 9.9996 1.1616 14.352 1.4228"/><path d="m51.904 161.08c4.9602 2.4133 6.0698 3.7886 12.462 2.4682" style="paint-order:normal"/></g></g><path d="m44.3 74.195 13.609 1.5395" fill="#b22222" stroke="#8b4513" stroke-linecap="round" stroke-width="1.7586" style="paint-order:normal"/><g fill="none" stroke="#8b4513" stroke-linecap="round"><g><path d="m235.63-72.628s0.31232-4.0321 4.0766-4.0321c3.7643 0 6.8159 4.5247 6.8159 10.106 0 5.5816-3.0516 10.106-6.8159 10.106s-5.5057-6.295-5.5057-6.295" stroke-width="1.7586" style="paint-order:normal"/><path d="m-9.8011-57.411c23.231 43.612 91.506 77.091 122.02 77.091 30.878 0 99.887-33.28 122.84-77.75" stroke-width="1.7585"/><path d="m238.18-64.666c-1.6548-0.43208-2.045-1.5974-1.613-3.2522 0.43208-1.6548 2.1236-2.6462 3.7784-2.2142" stroke-width="1.7586" style="paint-order:normal"/><path d="m139.03 115.52c2.5628 8.8252-13.636 53.192-2.6685 57.133 10.274 3.6917 27.235-47.248 25.297-61.687" stroke-width="1.7586"/></g><g stroke-linejoin="bevel" stroke-width="1.3649"><path d="m108.39-145.33c-13.778 44.171-93.35 95.166-139.4 87.081 36.157-7.8021 66.848-22.665 79.501-60.827" style="paint-order:normal"/><path d="m53.666-83.948c47.324 1.76 64.423-45.792 80.98-73.215" style="paint-order:normal"/><path d="m-4.6043-48.995c3.2811 10.903 9.8147 20.587 15.747 30.497-1.4556-1.8195-16.238-18.743-27.842-38.488m-2.7455-4.1834c-6.384-10.863-9.9723-20.129-10.457-28.325-2.1449-36.24 3.4173-60.173 28.472-82.089 27.623-24.163 91.077-33.47 127.57-29.582 16.793 1.7894 30.177 3.6101 46.298 7.9722m6.9943 2.0917c32.624 8.8277 57.525 22.936 67.993 49.099 15.999 39.99-4.6915 55.822-1.3893 71.743" style="paint-order:normal"/><path d="m171.81-189.13c2.512-9.2117 9.3916-16.785 15.688-24.578-4.2207 9.1341-10.042 18.029-7.8441 26.67" style="paint-order:normal"/><path d="m95.203-97.356c29.952-16.324 55.051-48.25 93.867-36.083" style="paint-order:normal"/><path d="m185.15-143.37c7.0937 20.563 33.673 45.865 50.234 68.613" style="paint-order:normal"/><path d="m224.11-135.79c-5.88 14.782 7.3474 42.742 11.505 60.66" style="paint-order:normal"/><path d="m238.75-114.61c-4.1204 6.8294-3.4784 22.588-2.0918 39.743" style="paint-order:normal"/></g><path d="m235.41-57.324 6.1012 18.581c0.91716-6.7512 0.34833-12.677 3.2355-20.522" stroke-linejoin="round" stroke-width="1.3647" style="paint-order:normal"/><path d="m70.039 9.237s3.0566 10.621 8.071 16.6c3.4013 0.33189 6.6268-0.01565 9.8406-1.5301 14.508 9.4681 24.343 2.1964 24.343 2.1964-1.7348-2.9968-7.8045-4.3497-12.577-6.5893l-6.2929-3.0999" stroke-linejoin="round" stroke-width="1.7589"/></g><g><path d="m81.556-41.945 76.24-6.3033s14.846 39.459-36.531 42.192c-49.341 2.6239-39.709-35.888-39.709-35.888z" fill="#500" style="paint-order:normal"/><path d="m121.97-16.944c-16.223-0.17221-26.982 3.0571-30.672 4.3616 6.054 4.2992 15.444 7.0851 29.969 6.3127 12.141-0.64578 20.548-3.3438 26.362-7.0678-0.86831-0.59177-1.8147-1.0288-2.7905-1.2193-8.452-1.6505-16.121-2.3156-22.868-2.3872z" fill="#faa" style="paint-order:normal"/><path d="m157.8-48.249-76.24 6.3033s-0.26066 1.2639-0.46888 3.2314l0.58629 0.26692 77.089-6.1298c-0.49157-2.2587-0.96616-3.6722-0.96616-3.6722z" fill="#fff" style="paint-order:normal"/><path d="m157.87-45.525c0.047 0.16673-75.977 6.1251-75.977 6.1251-0.0783 0.54089-0.16046 1.0691-0.23013 1.8385l76.568-6.0547c-0.2223-1.0613-0.18473-1.282-0.36085-1.9088zm1.9088 1.3789c0.0235 0.11741 0.047 0.26301 0.0704 0.38434h0.0156z" color="#000000" color-rendering="auto" dominant-baseline="auto" fill="#8b4513" image-rendering="auto" shape-rendering="auto" solid-color="#000000" style="font-feature-settings:normal;font-variant-alternates:normal;font-variant-caps:normal;font-variant-ligatures:normal;font-variant-numeric:normal;font-variant-position:normal;isolation:auto;mix-blend-mode:normal;paint-order:normal;shape-padding:0;text-decoration-color:#000000;text-decoration-line:none;text-decoration-style:solid;text-indent:0;text-orientation:mixed;text-transform:none;white-space:normal"/><path d="m188.07-79.195a17.299 10.892 7.9759 0 0-18.645 8.3873 17.299 10.892 7.9759 0 0-0.0313 1.368 17.299 10.892 7.9759 0 1 18.296-7.0352 17.299 10.892 7.9759 0 1 15.65 11.82 17.299 10.892 7.9759 0 0 0.34911-1.3521 17.299 10.892 7.9759 0 0-15.618-13.188z" fill="#8b4513" fill-rule="evenodd" style="paint-order:normal"/></g><path d="m81.556-41.945 76.24-6.3033s14.846 39.247-36.531 41.979c-49.341 2.6239-39.709-35.676-39.709-35.676z" fill="none" stroke="#8b4513" stroke-linecap="round" stroke-width="1.797" style="paint-order:normal"/><path d="m147.63-13.337c-5.1606-2.6729-18.911-3.535-25.659-3.6065-16.223-0.17221-26.982 3.0571-30.672 4.3616" fill="none" stroke="#8b4513" stroke-linecap="round" stroke-width="1.797" style="paint-order:normal"/><path d="m189.99-77.973c11.635-0.6929 14.272-1.8462 19.402-4.8535-1.6388 2.7596-8.1581 6.2273-11.322 6.3946 4.9461 1.4937 12.33-3.8394 16.13-5.7841-4.3146 3.9712-7.7284 7.8152-15.507 9.5237z" fill="#8b4513" style="paint-order:normal"/></g></g></svg>
