<?xml version="1.0" encoding="UTF-8" standalone="no"?>
<!-- Created with Inkscape (http://www.inkscape.org/) -->

<svg
   xmlns:dc="http://purl.org/dc/elements/1.1/"
   xmlns:cc="http://creativecommons.org/ns#"
   xmlns:rdf="http://www.w3.org/1999/02/22-rdf-syntax-ns#"
   xmlns:svg="http://www.w3.org/2000/svg"
   xmlns="http://www.w3.org/2000/svg"
   xmlns:sodipodi="http://sodipodi.sourceforge.net/DTD/sodipodi-0.dtd"
   xmlns:inkscape="http://www.inkscape.org/namespaces/inkscape"
   width="1000"
   height="1000"
   viewBox="0 0 264.58332 264.58334"
   version="1.1"
   id="svg8"
   sodipodi:docname="FutureIcon.svg"
   inkscape:version="0.92.2 (5c3e80d, 2017-08-06)">
  <defs
     id="defs2" />
  <sodipodi:namedview
     id="base"
     pagecolor="#ffffff"
     bordercolor="#666666"
     borderopacity="1.0"
     inkscape:pageopacity="0.0"
     inkscape:pageshadow="2"
     inkscape:zoom="0.48714309"
     inkscape:cx="693.74158"
     inkscape:cy="595.45821"
     inkscape:document-units="px"
     inkscape:current-layer="layer1"
     showgrid="false"
     units="px"
     inkscape:showpageshadow="false"
     borderlayer="true"
     inkscape:snap-path-clip="true"
     inkscape:snap-path-mask="true"
     inkscape:pagecheckerboard="true"
     inkscape:object-nodes="false"
     inkscape:snap-bbox="true"
     inkscape:snap-page="true"
     showguides="true"
     inkscape:guide-bbox="true" />
  <metadata
     id="metadata5">
    <rdf:RDF>
      <cc:Work
         rdf:about="">
        <dc:format>image/svg+xml</dc:format>
        <dc:type
           rdf:resource="http://purl.org/dc/dcmitype/StillImage" />
        <dc:title></dc:title>
        <dc:creator>
          <cc:Agent>
            <dc:title>Oz Locke</dc:title>
          </cc:Agent>
        </dc:creator>
        <dc:rights>
          <cc:Agent>
            <dc:title>All rights retained by Cuddly Cthulhu Creatives unless provable otherwise (transferal of rights will usualy be provided by email)</dc:title>
          </cc:Agent>
        </dc:rights>
        <dc:publisher>
          <cc:Agent>
            <dc:title>Cuddly Cthulhu Creatives</dc:title>
          </cc:Agent>
        </dc:publisher>
      </cc:Work>
    </rdf:RDF>
  </metadata>
  <g
     inkscape:label="Layer 1"
     inkscape:groupmode="layer"
     id="layer1"
     transform="translate(0,-32.416626)">
    <path
       style="opacity:1;vector-effect:none;fill:#800080;fill-opacity:1;fill-rule:evenodd;stroke:none;stroke-width:58.72681808;stroke-linecap:square;stroke-linejoin:miter;stroke-miterlimit:4;stroke-dasharray:none;stroke-dashoffset:0;stroke-opacity:1;paint-order:normal"
       d="m 3509.2617,-2405.6719 a 523.20234,523.20234 0 0 0 -523.2012,523.2031 523.20234,523.20234 0 0 0 523.2012,523.2032 523.20234,523.20234 0 0 0 523.2031,-523.2032 523.20234,523.20234 0 0 0 -523.2031,-523.2031 z m -44.5039,205.2871 c 25.1332,0 45.3652,20.2341 45.3652,45.3672 v 33.1406 h 196.9766 c 0,0 92.3942,39.2819 135.0274,65.4356 31.2739,19.1853 88.3219,55.1126 87.6738,66.5469 -0.6481,12.6378 -56.3999,47.3616 -87.6738,66.5468 -42.6332,26.1537 -135.0274,65.4356 -135.0274,65.4356 H 3510.123 v 306.0527 c 0,25.1332 -20.232,45.3672 -45.3652,45.3672 -25.1331,0 -45.3672,-20.234 -45.3672,-45.3672 v -306.0527 h -207.8359 c -26.2349,0 -47.3555,-21.1206 -47.3555,-47.3555 v -169.2539 c 0,-26.2349 21.1206,-47.3555 47.3555,-47.3555 h 207.8359 v -33.1406 c 0,-25.1331 20.2341,-45.3672 45.3672,-45.3672 z"
       transform="matrix(0.25285,0,0,0.25285,-755.0254,640.69051)"
       id="path864-4-3-5-4-7"
       inkscape:connector-curvature="0" />
  </g>
</svg>
