<?xml version="1.0" encoding="UTF-8" standalone="no"?>
<!-- Created with Inkscape (http://www.inkscape.org/) -->

<svg
   xmlns:dc="http://purl.org/dc/elements/1.1/"
   xmlns:cc="http://creativecommons.org/ns#"
   xmlns:rdf="http://www.w3.org/1999/02/22-rdf-syntax-ns#"
   xmlns:svg="http://www.w3.org/2000/svg"
   xmlns="http://www.w3.org/2000/svg"
   xmlns:sodipodi="http://sodipodi.sourceforge.net/DTD/sodipodi-0.dtd"
   xmlns:inkscape="http://www.inkscape.org/namespaces/inkscape"
   width="1000"
   height="1000"
   viewBox="0 0 264.58332 264.58334"
   version="1.1"
   id="svg8"
   sodipodi:docname="ReaderToDoIcon.svg"
   inkscape:version="0.92.2 (5c3e80d, 2017-08-06)">
  <defs
     id="defs2" />
  <sodipodi:namedview
     id="base"
     pagecolor="#ffffff"
     bordercolor="#666666"
     borderopacity="1.0"
     inkscape:pageopacity="0.0"
     inkscape:pageshadow="2"
     inkscape:zoom="0.48714309"
     inkscape:cx="693.74158"
     inkscape:cy="595.45821"
     inkscape:document-units="px"
     inkscape:current-layer="layer1"
     showgrid="false"
     units="px"
     inkscape:showpageshadow="false"
     borderlayer="true"
     inkscape:snap-path-clip="true"
     inkscape:snap-path-mask="true"
     inkscape:pagecheckerboard="true"
     inkscape:object-nodes="false"
     inkscape:snap-bbox="true"
     inkscape:snap-page="true"
     showguides="true"
     inkscape:guide-bbox="true" />
  <metadata
     id="metadata5">
    <rdf:RDF>
      <cc:Work
         rdf:about="">
        <dc:format>image/svg+xml</dc:format>
        <dc:type
           rdf:resource="http://purl.org/dc/dcmitype/StillImage" />
        <dc:title></dc:title>
        <dc:creator>
          <cc:Agent>
            <dc:title>Oz Locke</dc:title>
          </cc:Agent>
        </dc:creator>
        <dc:rights>
          <cc:Agent>
            <dc:title>All rights retained by Cuddly Cthulhu Creatives unless provable otherwise (transferal of rights will usualy be provided by email)</dc:title>
          </cc:Agent>
        </dc:rights>
        <dc:publisher>
          <cc:Agent>
            <dc:title>Cuddly Cthulhu Creatives</dc:title>
          </cc:Agent>
        </dc:publisher>
      </cc:Work>
    </rdf:RDF>
  </metadata>
  <g
     inkscape:label="Layer 1"
     inkscape:groupmode="layer"
     id="layer1"
     transform="translate(0,-32.416626)">
    <path
       style="opacity:1;vector-effect:none;fill:#00d400;fill-opacity:1;fill-rule:evenodd;stroke:none;stroke-width:58.72681808;stroke-linecap:square;stroke-linejoin:miter;stroke-miterlimit:4;stroke-dasharray:none;stroke-dashoffset:0;stroke-opacity:1;paint-order:normal"
       d="m 5960.8438,-2279.1191 a 523.20234,523.20234 0 0 0 -523.2032,523.2011 523.20234,523.20234 0 0 0 523.2032,523.2032 523.20234,523.20234 0 0 0 523.2011,-523.2032 523.20234,523.20234 0 0 0 -523.2011,-523.2011 z m -80.5372,117.7832 h 161.2012 c 35.4141,0 63.9238,26.5892 63.9238,59.6171 0,33.028 -28.5097,59.6172 -63.9238,59.6172 h -161.2012 c -35.414,0 -63.9238,-26.5892 -63.9238,-59.6172 0,-33.0279 28.5098,-59.6171 63.9238,-59.6171 z m -140.9238,69.289 h 62.8652 c 2.7264,36.4035 32.9284,64.9102 70.0528,64.9102 h 177.2129 c 37.1244,0 67.3244,-28.5067 70.0508,-64.9102 h 62.7402 c 42.7417,0 77.1523,34.4087 77.1523,77.1504 v 517.5723 c 0,42.7417 -34.4106,77.1523 -77.1523,77.1523 h -442.9219 c -42.7417,0 -77.1523,-34.4106 -77.1523,-77.1523 v -517.5723 c 0,-42.7417 34.4106,-77.1504 77.1523,-77.1504 z"
       transform="matrix(0.25285,0,0,0.25285,-1374.9074,608.69189)"
       id="circle307"
       inkscape:connector-curvature="0" />
  </g>
</svg>
